<svg xmlns="http://www.w3.org/2000/svg" viewBox="118 88 228 185">
  <style>
    path { fill: #aa0000; }
  </style>
  <path d="M253.78,105.95c-1.37-.36-2.08.29-2.42,1.53-.2.74-.38,1.48-.58,2.22-1.26,4.63-1.26,4.65,3.45,5.94,6,1.64,12.01,3.26,18.01,4.89,1.02.28,2.53.22,2.74,1.38.21,1.24-1.31,1.58-2.2,2.11-5.84,3.43-11.69,6.84-17.58,10.15-2.13,1.2-2.91,2.51-1.22,4.63.4.51.74,1.09.99,1.69,1.15,2.73,2.67,3.11,5.31,1.52,8.52-5.1,17.23-9.89,25.76-14.98,2.35-1.4,4.46-1.74,7.09-1.01,9.56,2.68,19.2,5.06,28.74,7.82,3.24.94,4.33-.3,5.03-3.13,1.17-4.74,1.25-4.82-2.35-5.81-6.52-1.8-13.07-3.52-19.59-5.3-.81-.22-1.99-.27-2.21-1.16-.31-1.23,1.02-1.56,1.79-2.01,5.75-3.36,11.49-6.74,17.33-9.93,2.68-1.46,3.31-2.94,1.58-5.67-2.67-4.23-2.72-4.43-6.08-2.5-7.58,4.33-15.29,8.47-22.66,13.15-4.38,2.78-8.46,3.9-13.43,1.84-3-1.24-6.29-1.79-9.45-2.62-6.01-1.59-12.03-3.16-18.05-4.74ZM215.46,112.41c-.16-.63-.41-1.69-.68-2.75-1.07-4.16-1.08-4.2-5.3-3.08-9.39,2.49-18.78,4.95-28.13,7.56-2.71.76-4.96.54-7.44-.94-8.43-5.05-17.04-9.79-25.46-14.85-2.73-1.64-4.39-1.28-5.63,1.56-.17.4-.38.8-.64,1.14-1.83,2.36-1.34,3.88,1.34,5.33,5.95,3.21,11.76,6.7,17.61,10.1.73.42,1.86.71,1.82,1.68-.05,1.27-1.41,1.21-2.27,1.45-5.89,1.62-11.8,3.17-17.71,4.74-5.6,1.49-5.49,1.47-4.07,6.93.72,2.79,2,3.35,4.73,2.58,9.35-2.63,18.8-4.87,28.12-7.6,3.26-.96,5.79-.5,8.61,1.19,8.42,5.05,17,9.85,25.45,14.85,2.03,1.2,3.41,1.16,4.41-1.13.26-.6.63-1.15.95-1.72,1.98-3.48,1.92-3.72-1.65-5.78-5.02-2.88-10.07-5.7-15.04-8.66-1.43-.85-3.96-1.34-3.72-3.15.21-1.52,2.74-1.35,4.27-1.78,5.99-1.67,12.02-3.21,18.02-4.85,1.21-.33,2.74-.47,2.42-2.83ZM254.42,261.11c3.07.84,4.48-1.13,5.38-4.55,5.47-20.9,11.16-41.75,16.64-62.65.78-2.98,2.25-4.99,4.95-6.45,6.04-3.28,11.97-6.76,17.94-10.17,4.65-2.67,4.51-2.61,2.08-7.29-1.47-2.83-2.94-3.11-5.63-1.48-7.18,4.36-14.46,8.56-21.82,12.61-2.79,1.53-4.38,3.45-5.2,6.59-6.03,23-12.22,45.97-18.37,68.94-1.16,4.34-1.1,4.44,4.04,4.45ZM210.84,261.11c5.17.02,5.45-.35,4.24-4.86-6.19-23.1-12.41-46.2-18.52-69.33-.64-2.42-1.82-4.01-3.98-5.22-7.33-4.13-14.57-8.4-21.86-12.59-4.46-2.57-4.33-2.46-7.11,1.96-1.7,2.7-1.24,4.1,1.54,5.6,6.54,3.52,12.87,7.42,19.37,11.01,2.48,1.37,3.8,3.22,4.52,5.98,5.53,21.02,11.23,41.98,16.78,62.99.8,3.03,1.88,5.18,5.02,4.48Z"/>
</svg>
